<?xml version="1.0" standalone="no"?><!DOCTYPE svg PUBLIC "-//W3C//DTD SVG 1.1//EN" "http://www.w3.org/Graphics/SVG/1.1/DTD/svg11.dtd"><svg class="icon" width="128px" height="128.00px" viewBox="0 0 1024 1024" version="1.1" xmlns="http://www.w3.org/2000/svg"><path d="M467.968 590.848c-3.584-0.512-7.168 0.512-10.752 3.584l-2.048 3.072c-1.024 0.512-1.536 1.024-2.048 2.048l-1.536 3.072c-0.512 1.024-0.512 2.048-0.512 3.584v3.072c0 1.024 0 2.048 0.512 3.072l1.536 3.072c1.536 3.072 4.096 4.608 7.68 4.608s7.168-1.024 10.24-3.072c2.048-2.048 3.584-4.096 4.608-6.144 1.024-2.048 2.048-4.608 2.048-6.656s-0.512-4.608-1.536-6.144c-2.048-4.608-4.608-6.656-8.192-7.168zM438.272 617.472c-2.048-2.048-4.608-4.096-7.68-5.632-3.072-1.536-6.144-3.072-10.24-3.584-4.096-0.512-8.192-1.024-12.288-0.512-6.144 0.512-11.776 2.56-16.896 6.144s-8.704 7.68-11.776 12.8c-3.072 5.12-4.096 10.24-4.096 15.36 0 2.56 0.512 4.608 1.024 6.656s1.536 4.096 3.072 5.632c1.024 1.536 2.56 3.072 4.096 5.12 1.536 1.536 3.072 3.072 5.12 4.096 2.048 1.024 4.096 1.536 6.144 2.56 2.048 0.512 4.608 1.024 7.168 1.536 2.56 0 5.12 0 8.192-0.512 6.144-0.512 11.776-2.56 16.896-5.632 5.12-3.072 9.216-7.168 12.288-12.288 3.072-4.608 4.608-9.728 4.608-14.848 0-3.072-0.512-6.144-1.536-9.216-0.512-3.072-2.048-5.12-4.096-7.68z" fill="#E13942" /><path d="M586.752 513.536c-35.328-19.456-78.848-28.16-130.56-25.6s-95.232 15.872-130.56 39.936c-35.328 24.576-53.248 53.248-53.248 87.04 0 34.304 17.92 62.464 53.76 84.48 35.84 22.016 79.36 32.256 130.048 29.696 50.176-2.56 93.184-16.896 129.536-44.544 36.352-27.136 54.272-57.856 54.272-92.16 0-32.768-17.408-59.392-53.248-78.848z m-48.64 115.712c-2.048 11.776-6.656 22.016-13.312 29.696-16.384 21.504-38.4 34.816-65.536 40.96-27.136 6.144-56.32 1.536-87.552-13.824-5.12-3.072-9.728-6.144-13.312-10.752-3.584-4.096-6.656-8.192-8.192-11.776-1.536-3.584-3.072-7.68-4.096-11.776-1.024-4.096-1.536-7.168-1.536-8.704v-2.56l-0.512-5.632c0-3.072 0-7.68 0.512-13.824 0.512-6.144 1.536-12.288 3.072-19.456s4.608-14.336 8.704-21.504c4.096-7.168 9.728-14.336 15.872-20.48 6.144-6.144 14.848-12.288 25.6-16.896 10.752-5.12 23.04-8.192 36.864-9.728 19.456-2.56 36.352-1.024 51.712 4.608 14.848 5.632 26.112 13.312 33.792 23.04s12.8 20.992 15.872 32.768c3.584 12.288 4.096 24.064 2.048 35.84z" fill="#E13942" /><path d="M512 15.36c-273.92 0-496.128 222.208-496.128 496.128 0 273.92 222.208 496.128 496.128 496.128 273.92 0 496.128-222.208 496.128-496.128 0-273.92-222.208-496.128-496.128-496.128z m219.136 622.592c-13.312 28.16-35.84 52.736-68.608 73.216s-67.584 34.816-104.96 43.008c-37.376 8.192-73.728 10.752-109.056 8.192-21.504-1.536-41.472-4.096-60.928-7.68-18.944-3.584-39.424-9.216-59.904-16.896-20.992-7.68-38.912-17.408-54.272-28.16-15.36-11.264-28.672-25.6-39.936-43.52s-17.92-38.4-20.992-60.928v-14.848c-0.512-10.24 3.072-25.6 10.752-46.08s18.944-40.448 34.816-60.928l7.68-11.264c5.632-7.168 13.824-16.384 24.064-27.648s22.016-23.04 34.304-35.328c12.288-12.288 27.136-23.552 44.544-34.816 16.896-11.264 33.792-19.456 50.176-25.088 13.824-4.608 26.112-7.68 36.864-8.704 10.752-1.024 19.968 0 26.624 2.048 6.656 2.56 12.288 5.632 16.896 9.216 4.608 3.584 7.68 8.704 10.24 14.848s4.096 11.776 4.608 16.896c0.512 5.12 1.024 10.24 1.024 15.872-0.512 2.56-1.024 5.632-2.048 9.728-1.024 4.096-1.536 7.168-1.536 8.704 0 2.048-0.512 4.096-0.512 6.656s0 4.096 1.024 5.12c1.024 0.512 2.048 1.536 4.096 2.048 1.536 0.512 4.096 1.024 7.168 0.512 3.072-0.512 7.168-1.536 11.776-3.072l9.216-4.096c6.144-2.56 13.824-4.608 23.552-7.68 9.216-2.56 19.456-4.608 30.208-6.144 10.752-1.536 21.504-1.536 31.744 0.512 10.752 2.048 19.456 6.144 26.112 12.8 3.584 3.584 6.656 8.192 8.704 12.8 2.048 4.608 3.584 9.216 4.096 13.312 0.512 4.096 1.024 8.192 0.512 12.8-0.512 4.608-1.024 8.192-1.536 11.264-0.512 3.072-1.536 6.144-3.072 9.216l-3.072 6.144c-0.512 1.024-1.024 1.536-1.536 2.048l-2.048 3.584c-1.536 2.56-1.024 5.12 1.024 7.68s6.656 5.12 13.824 6.144c5.632 1.024 12.288 3.072 19.456 6.144s15.36 8.704 23.552 15.872c8.192 7.168 14.848 15.36 20.48 24.576 5.12 9.216 7.68 20.992 7.68 35.84-1.024 13.824-5.12 29.184-12.8 46.08z m-24.064-210.432c-3.072-32.256-22.528-44.032-59.392-35.328-4.608 0-8.704-1.536-12.288-5.12-3.072-3.072-5.12-7.168-5.12-12.288 0-3.072 1.024-5.632 2.56-8.192s3.584-4.608 6.144-6.144c2.56-1.536 5.12-2.56 8.704-2.56 10.752-2.048 22.528-1.536 35.328 0.512 43.52 7.68 62.464 38.4 56.832 92.16 0 1.024 0 1.536-0.512 2.048-0.512 2.56-1.536 4.608-3.072 6.656s-3.072 4.096-5.632 5.12c-2.56 1.536-5.12 2.048-7.68 2.048-4.608 0-8.704-1.536-12.288-5.12-3.072-3.072-5.12-7.168-5.12-12.288 1.536-5.632 2.048-13.312 1.536-21.504z m126.464-5.632c-0.512 16.896-4.096 34.304-9.728 52.736-2.56 15.872-10.24 24.064-23.552 24.064-4.608 0-8.704-0.512-12.288-1.536-3.584-1.024-6.656-3.072-8.704-6.144-2.56-3.072-3.584-6.144-3.584-10.752 0-2.048 0-4.096 0.512-6.656s1.024-4.608 1.536-6.144c0.512-1.536 1.024-3.584 1.536-5.12 0.512-2.048 1.024-3.072 1.024-3.584 0-0.512 0.512-1.024 0.512-1.536 7.68-26.112 5.12-53.248-7.168-80.896-6.144-9.728-13.312-18.944-21.504-26.112a113.664 113.664 0 0 0-25.088-17.92c-8.192-4.096-16.384-7.68-25.088-10.752-8.192-3.072-15.872-4.608-22.528-5.12-6.656-0.512-12.8-1.024-17.408-1.024-4.608 0-8.192 0.512-9.728 1.024-1.536 0.512-3.584 1.536-5.632 2.048l-6.144 1.536c-2.048 0-3.584 0.512-5.12 1.024-1.536 0.512-2.56 0.512-3.072 0.512h-2.048c-6.656 0-12.288-2.56-16.896-7.168-4.608-4.608-7.168-10.752-7.168-17.92 0-5.12 1.536-10.24 5.12-14.336 3.072-4.608 7.68-7.68 12.8-8.704l0.512-0.512 0.512-1.536c0.512-0.512 1.024-0.512 1.536-0.512 34.816-6.656 62.976-7.68 83.968-3.072 9.728 2.56 19.456 5.632 28.672 9.216 9.216 3.584 18.944 8.704 28.672 15.36 9.728 6.144 18.944 13.312 27.136 21.504 8.192 7.68 15.36 17.408 21.504 28.16 6.144 11.264 10.752 23.04 13.824 35.84 2.56 12.288 3.584 27.136 3.072 44.032z" fill="#E13942" /></svg>