<?xml version="1.0" standalone="no"?><!DOCTYPE svg PUBLIC "-//W3C//DTD SVG 1.1//EN" "http://www.w3.org/Graphics/SVG/1.1/DTD/svg11.dtd"><svg class="icon" width="128px" height="128.00px" viewBox="0 0 1024 1024" version="1.1" xmlns="http://www.w3.org/2000/svg"><path d="M512 512m-512 0a512 512 0 1 0 1024 0 512 512 0 1 0-1024 0Z" fill="#1BB723" /><path d="M831.890286 585.603657c0-90.528914-90.594743-164.322743-192.336457-164.322743-107.739429 0-192.599771 73.793829-192.599772 164.322743 0 90.682514 84.860343 164.322743 192.599772 164.322743 22.542629 0 45.282743-5.6832 67.935085-11.359086l62.112915 34.004115-17.020343-56.590629c45.443657-34.091886 79.3088-79.316114 79.3088-130.377143z m-254.785829-28.335543c-11.278629 0-22.652343-11.227429-22.652343-22.674285 0-11.278629 11.373714-22.637714 22.652343-22.637715 17.122743 0 28.350171 11.359086 28.350172 22.637715 0 11.446857-11.227429 22.674286-28.350172 22.674285z m124.5696 0c-11.2128 0-22.498743-11.227429-22.498743-22.674285 0-11.278629 11.285943-22.637714 22.498743-22.637715 16.954514 0 28.328229 11.359086 28.328229 22.637715 0 11.446857-11.373714 22.674286-28.328229 22.674285z" fill="#FFFFFF" /><path d="M418.552686 251.428571c-124.481829 0-226.442971 84.845714-226.442972 192.577829 0 62.193371 33.923657 113.261714 90.609372 152.861257l-22.652343 68.117943 79.162514-39.701943c28.328229 5.610057 51.0464 11.373714 79.316114 11.373714 7.109486 0 14.153143-0.3584 21.138286-0.899657-4.425143-15.125943-6.992457-30.990629-6.992457-47.440457 0-98.933029 84.955429-179.214629 192.519314-179.214628 7.336229 0 14.606629 0.548571 21.803886 1.338514-19.587657-91.223771-117.116343-159.012571-228.461714-159.012572zM344.992914 404.319086c-16.969143 0-34.0992-11.373714-34.0992-28.342857 0-17.042286 17.130057-28.2624 34.0992-28.2624s28.2624 11.220114 28.2624 28.2624c0 16.969143-11.293257 28.342857-28.2624 28.342857z m158.471315 0c-16.976457 0-34.004114-11.373714-34.004115-28.342857 0-17.042286 17.027657-28.2624 34.004115-28.2624 17.0496 0 28.342857 11.220114 28.342857 28.2624 0.007314 16.969143-11.293257 28.342857-28.342857 28.342857z" fill="#FFFFFF" /></svg>